# xmcd
#
# Track frame offsets:
#	150
#	18768
#	41015
#	62765
#	82318
#	103154
#	132115
#	153067
#	173409
#	204894
#	228780
#	245596
#	270519
#	298861
#
# Disc length: 4341 seconds
#
# Revision: 1
# Processed by: cddbd v1.5.2PL0 Copyright (c) Steve Scherf et al.
# Submitted via: audiograbber 1.83.01
#
DISCID=b310f30e
DTITLE=Γιωργος Μαγκλαρας - Αμμος
DYEAR=2002
DGENRE=Jazz
TTITLE0=Γιωργος Μαγκλαρας - Αμμος
TTITLE1=Γιωργος Μαγκλαρας - Πεντοζαλι
TTITLE2=Γιωργος Μαγκλαρας - Παντρευουν την αγαπη μου
TTITLE3=Γιωργος Μαγκλαρας - Συλιβριανος
TTITLE4=Γιωργος Μαγκλαρας - Μπαινω μες τ' αμπελι
TTITLE5=Γιωργος Μαγκλαρας - Λουλιος
TTITLE6=Γιωργος Μαγκλαρας - Χανιωτικο
TTITLE7=Γιωργος Μαγκλαρας - Το φυσουνι
TTITLE8=Γιωργος Μαγκλαρας - Αγγελω
TTITLE9=Γιωργος Μαγκλαρας - Ο Σιμιτζης
TTITLE10=Γιωργος Μαγκλαρας - Στη ριζα της τρανταφυλλιας
TTITLE11=Γιωργος Μαγκλαρας - Που να 'βρω γω βασιλικο
TTITLE12=Γιωργος Μαγκλαρας - Μπιρμπιλω
TTITLE13=Γιωργος Μαγκλαρας - Μεγαλη ανατολη
EXTD=
EXTT0=
EXTT1=
EXTT2=
EXTT3=
EXTT4=
EXTT5=
EXTT6=
EXTT7=
EXTT8=
EXTT9=
EXTT10=
EXTT11=
EXTT12=
EXTT13=
PLAYORDER=
